<svg xmlns="http://www.w3.org/2000/svg" xmlns:xlink="http://www.w3.org/1999/xlink" width="500" zoomAndPan="magnify" viewBox="0 0 375 374.999991" height="500" preserveAspectRatio="xMidYMid meet" version="1.0"><defs><g/><clipPath id="add7e730c0"><path d="M 71 71 L 306 71 L 306 306 L 71 306 Z M 71 71 " clip-rule="nonzero"/></clipPath><clipPath id="4ccbd53175"><path d="M 157.113281 -8.222656 L 383.035156 217.695312 L 217.570312 383.160156 L -8.347656 157.238281 Z M 157.113281 -8.222656 " clip-rule="nonzero"/></clipPath><clipPath id="29af550c2d"><path d="M 157.113281 -8.222656 L 383.035156 217.695312 L 217.570312 383.160156 L -8.347656 157.238281 Z M 157.113281 -8.222656 " clip-rule="nonzero"/></clipPath></defs><g clip-path="url(#add7e730c0)"><g clip-path="url(#4ccbd53175)"><g clip-path="url(#29af550c2d)"><path fill="#afe0b1" d="M 152.75 92.445312 C 189.253906 78.574219 232.136719 86.261719 261.484375 115.609375 C 290.832031 144.953125 298.519531 187.839844 284.648438 224.34375 L 286.929688 226.625 C 301.851562 188.796875 294.074219 143.992188 263.585938 113.503906 C 233.101562 83.015625 188.296875 75.242188 150.464844 90.160156 Z M 225.5 283.496094 C 188.992188 297.363281 146.109375 289.679688 116.761719 260.332031 C 87.414062 230.984375 79.730469 188.101562 93.597656 151.59375 L 91.316406 149.3125 C 76.394531 187.144531 84.125 231.898438 114.660156 262.433594 C 145.148438 292.921875 189.949219 300.699219 227.78125 285.777344 Z M 148.144531 82.535156 C 188.667969 67.109375 236.347656 75.660156 268.890625 108.203125 C 301.433594 140.746094 310.027344 188.378906 294.558594 228.949219 L 297.113281 231.507812 C 313.679688 189.472656 305.042969 139.78125 271.175781 105.917969 C 237.308594 72.050781 187.621094 63.410156 145.585938 79.980469 Z M 228.871094 294.636719 C 188.34375 310.0625 140.664062 301.511719 108.121094 268.96875 C 75.582031 236.429688 66.984375 188.796875 82.453125 148.222656 L 79.898438 145.667969 C 63.285156 187.65625 71.972656 237.390625 105.835938 271.257812 C 139.703125 305.121094 189.390625 313.761719 231.425781 297.195312 Z M 228.871094 294.636719 " fill-opacity="1" fill-rule="nonzero"/></g></g></g><path fill="#ffb4e2" d="M 211.839844 121.386719 C 205.375 115.082031 195.0625 114.78125 188.234375 120.5 C 187.929688 120.753906 187.558594 120.871094 187.191406 120.863281 C 186.824219 120.871094 186.457031 120.753906 186.152344 120.5 C 179.324219 114.78125 169.011719 115.082031 162.546875 121.386719 C 156.105469 127.671875 155.808594 137.65625 161.640625 144.28125 C 161.707031 144.355469 161.761719 144.4375 161.8125 144.519531 L 187.191406 169.277344 L 212.574219 144.519531 C 212.625 144.4375 212.679688 144.355469 212.746094 144.28125 C 218.578125 137.65625 218.28125 127.671875 211.839844 121.386719 Z M 215.367188 146.046875 C 222.015625 138.164062 221.5625 126.488281 214.015625 119.128906 C 206.691406 111.980469 195.214844 111.382812 187.191406 117.324219 C 179.171875 111.382812 167.695312 111.980469 160.371094 119.128906 C 152.824219 126.488281 152.371094 138.164062 159.019531 146.046875 C 159.097656 146.210938 159.207031 146.359375 159.339844 146.492188 L 186.105469 172.597656 C 186.710938 173.191406 187.675781 173.191406 188.28125 172.597656 L 215.046875 146.492188 C 215.179688 146.359375 215.285156 146.210938 215.367188 146.046875 Z M 215.367188 146.046875 " fill-opacity="1" fill-rule="evenodd"/><path fill="#ffb4e2" d="M 174.683594 122.714844 C 175.320312 122.714844 175.898438 123.105469 176.132812 123.703125 L 187.144531 151.390625 L 195.113281 130.027344 C 195.320312 129.472656 195.816406 129.082031 196.398438 129.015625 C 196.980469 128.949219 197.550781 129.214844 197.878906 129.707031 L 203.667969 138.441406 L 216.90625 138.441406 L 216.90625 141.585938 L 202.832031 141.585938 C 202.308594 141.585938 201.820312 141.324219 201.53125 140.886719 L 196.96875 134.003906 L 188.65625 156.292969 C 188.429688 156.902344 187.855469 157.308594 187.210938 157.316406 C 186.566406 157.320312 185.980469 156.929688 185.742188 156.328125 L 174.683594 128.523438 L 169.878906 140.597656 C 169.640625 141.195312 169.066406 141.585938 168.425781 141.585938 L 157.480469 141.585938 L 157.480469 138.441406 L 167.367188 138.441406 L 173.230469 123.703125 C 173.46875 123.105469 174.042969 122.714844 174.683594 122.714844 Z M 174.683594 122.714844 " fill-opacity="1" fill-rule="evenodd"/><g fill="#000000" fill-opacity="1"><g transform="translate(109.029665, 236.383856)"><g><path d="M 3.296875 -4.203125 C 3.703125 -4.117188 4.03125 -3.914062 4.28125 -3.59375 C 4.539062 -3.28125 4.671875 -2.816406 4.671875 -2.203125 C 4.671875 -1.742188 4.5625 -1.335938 4.34375 -0.984375 C 4.125 -0.640625 3.832031 -0.375 3.46875 -0.1875 C 3.113281 -0.0078125 2.722656 0.078125 2.296875 0.078125 C 1.960938 0.078125 1.613281 0.0078125 1.25 -0.125 C 0.894531 -0.269531 0.613281 -0.453125 0.40625 -0.671875 L 1.140625 -1.875 C 1.253906 -1.726562 1.414062 -1.597656 1.625 -1.484375 C 1.832031 -1.367188 2.039062 -1.3125 2.25 -1.3125 C 2.488281 -1.3125 2.703125 -1.398438 2.890625 -1.578125 C 3.078125 -1.753906 3.171875 -1.992188 3.171875 -2.296875 C 3.171875 -2.585938 3.085938 -2.820312 2.921875 -3 C 2.753906 -3.175781 2.523438 -3.265625 2.234375 -3.265625 C 2.054688 -3.265625 1.914062 -3.253906 1.8125 -3.234375 C 1.71875 -3.222656 1.609375 -3.203125 1.484375 -3.171875 L 1.453125 -3.203125 L 2.53125 -5.234375 L 0.953125 -5.234375 L 0.953125 -6.625 L 4.5625 -6.625 Z M 3.296875 -4.203125 "/></g></g></g><g fill="#000000" fill-opacity="1"><g transform="translate(118.297575, 236.383856)"><g><path d="M 0.953125 -7.359375 L 3.15625 -7.359375 C 4.09375 -7.359375 4.863281 -7.175781 5.46875 -6.8125 C 6.070312 -6.445312 6.507812 -5.976562 6.78125 -5.40625 C 7.0625 -4.832031 7.203125 -4.210938 7.203125 -3.546875 C 7.203125 -2.835938 7.035156 -2.210938 6.703125 -1.671875 C 6.367188 -1.140625 5.921875 -0.726562 5.359375 -0.4375 C 4.796875 -0.144531 4.179688 0 3.515625 0 L 0.953125 0 Z M 3.265625 -1.40625 C 4.015625 -1.40625 4.609375 -1.597656 5.046875 -1.984375 C 5.484375 -2.367188 5.703125 -2.925781 5.703125 -3.65625 C 5.703125 -4.238281 5.582031 -4.703125 5.34375 -5.046875 C 5.101562 -5.390625 4.820312 -5.628906 4.5 -5.765625 C 4.175781 -5.898438 3.867188 -5.96875 3.578125 -5.96875 L 2.40625 -5.96875 L 2.40625 -1.40625 Z M 3.265625 -1.40625 "/></g></g></g><g fill="#000000" fill-opacity="1"><g transform="translate(130.004519, 236.383856)"><g><path d="M 7.996094 -0.578125 L 8.707031 -1.371094 C 8.167969 -1.839844 7.1875 -2.5 6.359375 -3.007812 L 9.097656 -3.007812 L 9.097656 -4.039062 L 6.367188 -4.039062 L 6.367188 -4.988281 L 8.6875 -4.988281 L 8.6875 -5.988281 L 4.597656 -5.988281 C 4.6875 -6.179688 4.769531 -6.367188 4.847656 -6.546875 L 3.738281 -6.828125 C 3.480469 -6.109375 2.960938 -5.398438 2.359375 -4.9375 C 2.628906 -4.808594 3.121094 -4.519531 3.347656 -4.347656 C 3.550781 -4.519531 3.75 -4.738281 3.9375 -4.988281 L 5.1875 -4.988281 L 5.1875 -4.039062 L 2.417969 -4.039062 L 2.417969 -3.007812 L 5 -3.007812 C 4.699219 -2.417969 4.007812 -1.859375 2.410156 -1.46875 C 2.648438 -1.238281 2.988281 -0.839844 3.140625 -0.578125 C 4.539062 -1 5.367188 -1.558594 5.820312 -2.179688 C 6.617188 -1.660156 7.476562 -1.039062 7.9375 -0.578125 L 2.019531 -0.578125 L 2.019531 -6.886719 L 9.367188 -6.886719 L 9.367188 -8.019531 L 0.828125 -8.019531 L 0.828125 0.558594 L 9.578125 0.558594 L 9.578125 -0.578125 Z M 7.996094 -0.578125 "/></g></g></g><g fill="#000000" fill-opacity="1"><g transform="translate(144.00057, 236.383856)"><g><path d="M 1.808594 -5.839844 L 8.1875 -5.839844 L 8.1875 -4.699219 L 9.359375 -4.699219 L 9.359375 -6.886719 L 7.898438 -6.886719 C 8.179688 -7.25 8.476562 -7.636719 8.746094 -8.027344 L 7.507812 -8.398438 C 7.308594 -7.949219 6.96875 -7.359375 6.648438 -6.886719 L 5.347656 -6.886719 L 5.9375 -7.117188 C 5.808594 -7.519531 5.480469 -8.128906 5.148438 -8.558594 L 4.097656 -8.167969 C 4.347656 -7.777344 4.609375 -7.289062 4.75 -6.886719 L 3.070312 -6.886719 L 3.449219 -7.066406 C 3.277344 -7.449219 2.878906 -7.988281 2.53125 -8.378906 L 1.519531 -7.929688 C 1.757812 -7.617188 2.039062 -7.226562 2.21875 -6.886719 L 0.691406 -6.886719 L 0.691406 -4.699219 L 1.808594 -4.699219 Z M 9.46875 -2.839844 L 5.589844 -2.839844 L 5.589844 -3.027344 C 6.4375 -3.4375 7.25 -3.980469 7.859375 -4.539062 L 7.097656 -5.128906 L 6.859375 -5.070312 L 2.347656 -5.070312 L 2.347656 -4.039062 L 5.5 -4.039062 C 5.140625 -3.820312 4.75 -3.609375 4.367188 -3.460938 L 4.367188 -2.839844 L 0.558594 -2.839844 L 0.558594 -1.738281 L 4.367188 -1.738281 L 4.367188 -0.488281 C 4.367188 -0.359375 4.320312 -0.308594 4.109375 -0.308594 C 3.910156 -0.300781 3.167969 -0.300781 2.53125 -0.328125 C 2.710938 -0.0195312 2.9375 0.480469 3.019531 0.820312 C 3.867188 0.820312 4.5 0.808594 4.96875 0.628906 C 5.4375 0.460938 5.589844 0.160156 5.589844 -0.460938 L 5.589844 -1.738281 L 9.46875 -1.738281 Z M 9.46875 -2.839844 "/></g></g></g><g fill="#000000" fill-opacity="1"><g transform="translate(157.996619, 236.383856)"><g><path d="M 8.128906 -8.296875 C 7.609375 -7.507812 6.617188 -6.699219 5.777344 -6.25 C 6.078125 -6.027344 6.429688 -5.667969 6.617188 -5.417969 C 7.566406 -6.007812 8.566406 -6.878906 9.246094 -7.839844 Z M 8.378906 -5.597656 C 7.816406 -4.75 6.71875 -3.910156 5.808594 -3.410156 C 6.109375 -3.1875 6.4375 -2.847656 6.628906 -2.578125 C 7.648438 -3.199219 8.726562 -4.128906 9.46875 -5.140625 Z M 2.050781 -6.347656 L 4.539062 -6.347656 L 4.539062 -5.96875 L 2.050781 -5.96875 Z M 2.050781 -7.398438 L 4.539062 -7.398438 L 4.539062 -7.027344 L 2.050781 -7.027344 Z M 6.070312 -4.789062 L 3.988281 -4.789062 C 3.929688 -4.949219 3.839844 -5.109375 3.757812 -5.25 L 5.71875 -5.25 L 5.71875 -8.117188 L 0.917969 -8.117188 L 0.917969 -5.25 L 3.359375 -5.25 L 2.578125 -5.089844 C 2.628906 -5 2.667969 -4.898438 2.71875 -4.789062 L 0.46875 -4.789062 L 0.46875 -3.890625 L 6.070312 -3.890625 Z M 1.371094 -1.449219 C 1.160156 -0.960938 0.820312 -0.417969 0.460938 -0.0507812 C 0.691406 0.0898438 1.101562 0.398438 1.28125 0.570312 C 1.648438 0.140625 2.089844 -0.550781 2.359375 -1.148438 Z M 2.179688 -2.78125 L 4.417969 -2.78125 L 4.417969 -2.257812 L 2.179688 -2.257812 Z M 5.578125 -1.488281 L 5.578125 -3.550781 L 1.078125 -3.550781 L 1.078125 -1.488281 L 2.6875 -1.488281 L 2.6875 -0.210938 C 2.6875 -0.121094 2.660156 -0.0898438 2.558594 -0.0898438 C 2.460938 -0.0898438 2.148438 -0.0898438 1.847656 -0.101562 C 1.988281 0.171875 2.128906 0.550781 2.179688 0.851562 C 2.710938 0.851562 3.128906 0.839844 3.4375 0.699219 C 3.777344 0.550781 3.847656 0.308594 3.847656 -0.179688 L 3.847656 -1.488281 Z M 8.558594 -2.800781 C 7.949219 -1.667969 6.789062 -0.710938 5.609375 -0.148438 C 5.417969 -0.539062 5.109375 -1.070312 4.859375 -1.460938 L 4.019531 -1.109375 C 4.339844 -0.589844 4.6875 0.101562 4.839844 0.519531 L 5.71875 0.101562 C 5.6875 0.03125 5.660156 -0.0390625 5.628906 -0.121094 C 5.917969 0.128906 6.238281 0.5 6.417969 0.789062 C 7.726562 0.0585938 8.90625 -1.050781 9.65625 -2.390625 Z M 8.558594 -2.800781 "/></g></g></g><g fill="#000000" fill-opacity="1"><g transform="translate(171.992668, 236.383856)"><g><path d="M 4.617188 -5.507812 L 5.910156 -5.507812 C 5.859375 -5.320312 5.777344 -5.109375 5.636719 -4.890625 L 4.617188 -4.890625 Z M 6.4375 -6.886719 C 6.308594 -6.699219 6.167969 -6.519531 6.019531 -6.359375 L 4.519531 -6.359375 C 4.667969 -6.527344 4.820312 -6.707031 4.957031 -6.886719 Z M 7.988281 -4.890625 L 6.71875 -4.890625 C 6.796875 -5.109375 6.839844 -5.320312 6.867188 -5.507812 L 7.988281 -5.507812 Z M 8.539062 -3.808594 C 8.109375 -3.5 7.457031 -3.109375 6.878906 -2.800781 C 6.6875 -3.1875 6.410156 -3.550781 6.046875 -3.859375 C 6.109375 -3.917969 6.160156 -3.980469 6.207031 -4.039062 L 9.085938 -4.039062 L 9.085938 -6.359375 L 7.257812 -6.359375 C 7.527344 -6.667969 7.769531 -7 7.976562 -7.316406 L 7.308594 -7.816406 L 7.089844 -7.757812 L 5.546875 -7.757812 C 5.648438 -7.917969 5.738281 -8.089844 5.828125 -8.246094 L 4.71875 -8.457031 C 4.308594 -7.65625 3.578125 -6.71875 2.558594 -6 C 2.910156 -6.679688 3.230469 -7.378906 3.46875 -8.078125 L 2.347656 -8.429688 C 1.878906 -7.019531 1.050781 -5.597656 0.191406 -4.6875 C 0.390625 -4.398438 0.71875 -3.75 0.828125 -3.460938 C 1.019531 -3.660156 1.210938 -3.898438 1.398438 -4.148438 L 1.398438 0.851562 L 2.539062 0.851562 L 2.539062 -5.957031 L 2.550781 -5.988281 C 2.789062 -5.839844 3.128906 -5.46875 3.300781 -5.21875 C 3.390625 -5.296875 3.488281 -5.367188 3.578125 -5.449219 L 3.578125 -4.039062 L 4.808594 -4.039062 C 4.339844 -3.710938 3.710938 -3.398438 2.828125 -3.140625 C 3.050781 -2.949219 3.328125 -2.621094 3.46875 -2.4375 C 4.269531 -2.667969 4.898438 -2.96875 5.367188 -3.289062 C 5.4375 -3.21875 5.507812 -3.140625 5.578125 -3.050781 C 4.96875 -2.558594 3.847656 -2.039062 2.949219 -1.789062 C 3.148438 -1.621094 3.429688 -1.28125 3.570312 -1.058594 C 4.347656 -1.351562 5.296875 -1.871094 5.976562 -2.410156 C 6.027344 -2.300781 6.070312 -2.1875 6.109375 -2.070312 C 5.347656 -1.378906 3.988281 -0.699219 2.808594 -0.371094 C 3.027344 -0.171875 3.328125 0.210938 3.480469 0.449219 C 4.417969 0.128906 5.449219 -0.441406 6.269531 -1.089844 C 6.269531 -0.730469 6.199219 -0.449219 6.089844 -0.320312 C 5.976562 -0.140625 5.859375 -0.109375 5.679688 -0.109375 C 5.519531 -0.109375 5.308594 -0.121094 5.058594 -0.148438 C 5.238281 0.148438 5.308594 0.578125 5.328125 0.859375 C 5.527344 0.878906 5.75 0.878906 5.917969 0.871094 C 6.328125 0.859375 6.636719 0.761719 6.910156 0.429688 C 7.296875 0.0117188 7.449219 -1.007812 7.179688 -2.039062 C 7.289062 -2.078125 7.398438 -2.128906 7.519531 -2.179688 C 7.816406 -1.140625 8.328125 -0.230469 9.058594 0.300781 C 9.21875 0.0195312 9.558594 -0.378906 9.789062 -0.589844 C 9.136719 -0.980469 8.648438 -1.738281 8.367188 -2.570312 C 8.6875 -2.730469 9.019531 -2.898438 9.316406 -3.078125 Z M 8.539062 -3.808594 "/></g></g></g><g fill="#000000" fill-opacity="1"><g transform="translate(185.988717, 236.383856)"><g><path d="M 1.398438 -6.148438 C 1.558594 -6.339844 1.71875 -6.558594 1.859375 -6.796875 L 2.359375 -6.796875 L 2.359375 -6.367188 C 2.359375 -6.296875 2.359375 -6.226562 2.347656 -6.148438 Z M 5.046875 -4.257812 C 4.789062 -4.429688 3.789062 -5 3.371094 -5.21875 L 5.019531 -5.21875 L 5.019531 -6.148438 L 3.480469 -6.148438 C 3.488281 -6.21875 3.488281 -6.277344 3.488281 -6.347656 L 3.488281 -6.796875 L 4.789062 -6.796875 L 4.789062 -7.71875 L 2.308594 -7.71875 C 2.390625 -7.917969 2.449219 -8.117188 2.507812 -8.308594 L 1.460938 -8.527344 C 1.257812 -7.789062 0.871094 -7.058594 0.359375 -6.578125 C 0.558594 -6.476562 0.878906 -6.296875 1.121094 -6.148438 L 0.449219 -6.148438 L 0.449219 -5.21875 L 2.109375 -5.21875 C 1.859375 -4.71875 1.351562 -4.230469 0.328125 -3.828125 C 0.589844 -3.640625 0.917969 -3.269531 1.078125 -3.027344 C 1.980469 -3.449219 2.558594 -3.960938 2.917969 -4.46875 C 3.371094 -4.160156 3.929688 -3.75 4.207031 -3.5 Z M 7.078125 -2.417969 L 7.078125 -1.859375 L 2.949219 -1.859375 L 2.949219 -2.417969 Z M 2.949219 -0.410156 L 2.949219 -1 L 7.078125 -1 L 7.078125 -0.410156 Z M 1.78125 0.871094 L 2.949219 0.871094 L 2.949219 0.539062 L 7.078125 0.539062 L 7.078125 0.859375 L 8.296875 0.859375 L 8.296875 -3.347656 L 1.78125 -3.347656 Z M 7.976562 -5 L 6.457031 -5 L 6.457031 -6.6875 L 7.976562 -6.6875 Z M 5.359375 -7.738281 L 5.359375 -3.949219 L 9.15625 -3.949219 L 9.15625 -7.738281 Z M 5.359375 -7.738281 "/></g></g></g><g fill="#000000" fill-opacity="1"><g transform="translate(199.984766, 236.383856)"><g><path d="M 2.019531 -1.910156 L 2.019531 -2.488281 L 3.507812 -2.488281 L 3.507812 -1.910156 Z M 3.507812 -3.898438 L 3.507812 -3.371094 L 2.019531 -3.371094 L 2.019531 -3.898438 Z M 4.6875 -4.878906 L 0.917969 -4.878906 L 0.917969 0.859375 L 2.019531 0.859375 L 2.019531 -1.03125 L 3.507812 -1.03125 L 3.507812 -0.359375 C 3.507812 -0.238281 3.46875 -0.210938 3.347656 -0.210938 C 3.21875 -0.199219 2.828125 -0.191406 2.46875 -0.210938 C 2.621094 0.0703125 2.800781 0.53125 2.859375 0.839844 C 3.449219 0.839844 3.917969 0.828125 4.25 0.640625 C 4.589844 0.46875 4.6875 0.179688 4.6875 -0.339844 Z M 3.050781 -7.488281 C 3.210938 -7.21875 3.390625 -6.917969 3.539062 -6.617188 L 2.078125 -6.527344 C 2.460938 -7.007812 2.859375 -7.597656 3.140625 -8.167969 L 1.878906 -8.496094 C 1.597656 -7.757812 1.128906 -7.058594 0.980469 -6.859375 C 0.808594 -6.636719 0.648438 -6.507812 0.488281 -6.46875 C 0.628906 -6.148438 0.828125 -5.589844 0.890625 -5.359375 C 1.148438 -5.457031 1.539062 -5.527344 3.949219 -5.730469 C 4.019531 -5.546875 4.078125 -5.378906 4.109375 -5.230469 L 5.1875 -5.660156 C 5.027344 -6.289062 4.519531 -7.179688 4.058594 -7.859375 Z M 8.277344 -4 C 9.1875 -4 9.507812 -4.359375 9.636719 -5.636719 C 9.308594 -5.707031 8.835938 -5.886719 8.597656 -6.070312 C 8.546875 -5.199219 8.488281 -5.046875 8.15625 -5.046875 L 7.078125 -5.046875 C 6.699219 -5.046875 6.636719 -5.089844 6.636719 -5.449219 L 6.636719 -6.039062 C 7.507812 -6.296875 8.449219 -6.609375 9.207031 -6.976562 L 8.449219 -7.839844 C 7.988281 -7.566406 7.316406 -7.269531 6.636719 -7 L 6.636719 -8.4375 L 5.457031 -8.4375 L 5.457031 -5.429688 C 5.457031 -4.339844 5.75 -4 6.910156 -4 Z M 7.109375 -0.238281 C 6.71875 -0.238281 6.648438 -0.289062 6.648438 -0.640625 L 6.648438 -1.429688 C 7.558594 -1.71875 8.539062 -2.078125 9.308594 -2.488281 L 8.527344 -3.359375 C 8.046875 -3.039062 7.359375 -2.710938 6.648438 -2.429688 L 6.648438 -3.777344 L 5.46875 -3.777344 L 5.46875 -0.640625 C 5.46875 0.449219 5.769531 0.800781 6.9375 0.800781 L 8.339844 0.800781 C 9.289062 0.800781 9.609375 0.398438 9.726562 -1 C 9.40625 -1.078125 8.9375 -1.257812 8.6875 -1.429688 C 8.636719 -0.429688 8.578125 -0.238281 8.226562 -0.238281 Z M 7.109375 -0.238281 "/></g></g></g><g fill="#000000" fill-opacity="1"><g transform="translate(213.980815, 236.383856)"><g><path d="M 4.847656 -5.148438 C 5.070312 -4.957031 5.289062 -4.628906 5.386719 -4.398438 C 5.457031 -4.429688 5.527344 -4.46875 5.597656 -4.5 C 5.457031 -3.75 5.207031 -2.988281 4.847656 -2.460938 Z M 3.308594 -1.441406 L 3.878906 -1.441406 L 3.878906 -0.371094 C 3.878906 -0.269531 3.847656 -0.238281 3.757812 -0.238281 C 3.699219 -0.238281 3.519531 -0.238281 3.308594 -0.25 Z M 1.949219 -2.308594 C 1.96875 -2.648438 1.980469 -2.96875 1.980469 -3.269531 L 1.980469 -3.328125 L 2.53125 -3.328125 L 2.53125 -2.308594 Z M 3.199219 -6.636719 C 3.109375 -6.378906 3.007812 -6.128906 2.917969 -5.910156 L 1.859375 -5.910156 C 1.980469 -6.148438 2.097656 -6.378906 2.210938 -6.636719 Z M 1.980469 -5.039062 L 2.53125 -5.039062 L 2.53125 -4.179688 L 1.980469 -4.179688 Z M 3.878906 -3.328125 L 3.878906 -2.308594 L 3.308594 -2.308594 L 3.308594 -3.328125 Z M 3.308594 -4.179688 L 3.308594 -5.039062 L 3.878906 -5.039062 L 3.878906 -4.179688 Z M 9.648438 -1.839844 L 8.15625 -1.839844 L 8.15625 -2.738281 L 9.4375 -2.738281 L 9.4375 -3.738281 L 8.15625 -3.738281 L 8.15625 -4.539062 L 7.027344 -4.539062 L 7.027344 -3.738281 L 6.429688 -3.738281 C 6.488281 -3.949219 6.539062 -4.167969 6.566406 -4.367188 L 5.6875 -4.550781 C 6.6875 -5.117188 7.066406 -5.949219 7.226562 -6.988281 L 8.339844 -6.988281 C 8.296875 -6.160156 8.246094 -5.820312 8.15625 -5.707031 C 8.089844 -5.617188 8.007812 -5.597656 7.878906 -5.597656 C 7.75 -5.597656 7.488281 -5.609375 7.167969 -5.636719 C 7.316406 -5.378906 7.417969 -4.988281 7.4375 -4.679688 C 7.847656 -4.667969 8.226562 -4.679688 8.449219 -4.707031 C 8.707031 -4.75 8.886719 -4.828125 9.058594 -5.039062 C 9.269531 -5.289062 9.359375 -5.988281 9.40625 -7.578125 C 9.417969 -7.707031 9.425781 -7.957031 9.425781 -7.957031 L 5.039062 -7.957031 L 5.039062 -6.988281 L 6.160156 -6.988281 C 6.019531 -6.25 5.707031 -5.648438 4.847656 -5.269531 L 4.847656 -5.910156 L 3.949219 -5.910156 C 4.160156 -6.308594 4.359375 -6.769531 4.5 -7.148438 L 3.800781 -7.589844 L 3.640625 -7.539062 L 2.550781 -7.539062 C 2.628906 -7.769531 2.699219 -8.007812 2.757812 -8.238281 L 1.699219 -8.46875 C 1.429688 -7.289062 0.898438 -6.128906 0.21875 -5.398438 C 0.429688 -5.257812 0.789062 -4.957031 1 -4.757812 L 1 -3.269531 C 1 -2.148438 0.949219 -0.667969 0.28125 0.359375 C 0.5 0.46875 0.941406 0.75 1.121094 0.898438 C 1.539062 0.261719 1.757812 -0.589844 1.871094 -1.441406 L 2.53125 -1.441406 L 2.53125 0.25 L 3.308594 0.25 L 3.308594 -0.109375 C 3.417969 0.160156 3.507812 0.511719 3.539062 0.75 C 3.980469 0.75 4.289062 0.730469 4.539062 0.550781 C 4.789062 0.378906 4.847656 0.078125 4.847656 -0.351562 L 4.847656 -2.410156 C 5.089844 -2.300781 5.488281 -2.089844 5.679688 -1.960938 C 5.820312 -2.179688 5.957031 -2.449219 6.089844 -2.738281 L 7.027344 -2.738281 L 7.027344 -1.839844 L 5.140625 -1.839844 L 5.140625 -0.820312 L 7.027344 -0.820312 L 7.027344 0.859375 L 8.15625 0.859375 L 8.15625 -0.820312 L 9.648438 -0.820312 Z M 9.648438 -1.839844 "/></g></g></g><g fill="#000000" fill-opacity="1"><g transform="translate(227.97687, 236.383856)"><g><path d="M 4.308594 -3.148438 C 4.128906 -3.410156 3.359375 -4.457031 2.988281 -4.910156 L 2.988281 -5.289062 L 4.347656 -5.289062 L 4.347656 -6.410156 L 2.988281 -6.410156 L 2.988281 -8.46875 L 1.847656 -8.46875 L 1.847656 -6.410156 L 0.5 -6.410156 L 0.5 -5.289062 L 1.71875 -5.289062 C 1.417969 -4.109375 0.859375 -2.75 0.230469 -1.960938 C 0.410156 -1.660156 0.679688 -1.191406 0.789062 -0.851562 C 1.191406 -1.390625 1.550781 -2.167969 1.847656 -3.019531 L 1.847656 0.859375 L 2.988281 0.859375 L 2.988281 -3.417969 C 3.238281 -2.980469 3.480469 -2.519531 3.617188 -2.210938 Z M 9.667969 -5.109375 L 5.886719 -5.109375 L 5.886719 -6.519531 C 7.007812 -6.726562 8.1875 -7.039062 9.128906 -7.429688 L 8.128906 -8.367188 C 7.316406 -7.96875 5.988281 -7.597656 4.757812 -7.367188 L 4.757812 -4.417969 C 4.757812 -3.007812 4.679688 -1.078125 3.769531 0.25 C 4.050781 0.359375 4.539062 0.660156 4.757812 0.839844 C 5.636719 -0.460938 5.847656 -2.46875 5.886719 -3.988281 L 7.199219 -3.988281 L 7.199219 0.859375 L 8.378906 0.859375 L 8.378906 -3.988281 L 9.667969 -3.988281 Z M 9.667969 -5.109375 "/></g></g></g><g fill="#000000" fill-opacity="1"><g transform="translate(241.972924, 236.383856)"><g><path d="M 9.546875 -3.640625 L 5.617188 -3.640625 L 5.617188 -6.667969 L 8.96875 -6.667969 L 8.96875 -7.847656 L 1.007812 -7.847656 L 1.007812 -6.667969 L 4.378906 -6.667969 L 4.378906 -3.640625 L 0.488281 -3.640625 L 0.488281 -2.429688 L 4.378906 -2.429688 L 4.378906 0.871094 L 5.617188 0.871094 L 5.617188 -2.429688 L 9.546875 -2.429688 Z M 1.621094 -6.027344 C 1.941406 -5.359375 2.25 -4.480469 2.347656 -3.949219 L 3.507812 -4.308594 C 3.398438 -4.867188 3.039062 -5.707031 2.710938 -6.347656 Z M 7.457031 -3.96875 C 7.789062 -4.480469 8.199219 -5.289062 8.558594 -6.058594 L 7.289062 -6.378906 C 7.097656 -5.730469 6.738281 -4.847656 6.417969 -4.269531 Z M 7.457031 -3.96875 "/></g></g></g><g fill="#000000" fill-opacity="1"><g transform="translate(255.968978, 236.383856)"><g><path d="M 7.089844 -2.390625 L 7.089844 -0.789062 L 2.847656 -0.789062 L 2.847656 -2.390625 Z M 1.628906 0.859375 L 2.847656 0.859375 L 2.847656 0.351562 L 7.089844 0.351562 L 7.089844 0.851562 L 8.367188 0.851562 L 8.367188 -3.527344 L 1.628906 -3.527344 Z M 5.820312 -6.929688 C 6.1875 -6.558594 6.589844 -6.136719 6.976562 -5.699219 L 2.878906 -5.570312 C 3.640625 -6.296875 4.429688 -7.1875 5.058594 -8.117188 L 3.859375 -8.628906 C 3.179688 -7.429688 2.089844 -6.21875 1.738281 -5.910156 C 1.410156 -5.589844 1.167969 -5.398438 0.910156 -5.328125 C 1.050781 -5.019531 1.238281 -4.429688 1.300781 -4.1875 C 1.828125 -4.367188 2.539062 -4.390625 7.847656 -4.648438 C 8.058594 -4.367188 8.238281 -4.109375 8.367188 -3.890625 L 9.378906 -4.617188 C 8.859375 -5.457031 7.667969 -6.6875 6.75 -7.546875 Z M 5.820312 -6.929688 "/></g></g></g><g fill="#62bfa7" fill-opacity="1"><g transform="translate(94.828153, 207.599986)"><g><path d="M 20.46875 -18.390625 L 20.46875 0 L 16.984375 0 L 16.984375 -8.421875 L 11.234375 -0.234375 L 11.1875 -0.234375 L 5.640625 -7.890625 L 5.640625 0 L 2.28125 0 L 2.28125 -18.390625 L 2.296875 -18.390625 L 11.25 -5.6875 L 20.421875 -18.390625 Z M 20.46875 -18.390625 "/></g></g></g><g fill="#62bfa7" fill-opacity="1"><g transform="translate(136.780194, 207.599986)"><g><path d="M 14.328125 -17.65625 L 14.328125 -14.296875 L 5.765625 -14.296875 L 5.765625 -10.53125 L 13.34375 -10.53125 L 13.34375 -7.171875 L 5.765625 -7.171875 L 5.765625 -3.359375 L 14.65625 -3.359375 L 14.65625 0 L 2.28125 0 L 2.28125 -17.65625 Z M 14.328125 -17.65625 "/></g></g></g><g fill="#62bfa7" fill-opacity="1"><g transform="translate(171.964222, 207.599986)"><g><path d="M 2.28125 -17.65625 L 7.5625 -17.65625 C 9.8125 -17.65625 11.664062 -17.21875 13.125 -16.34375 C 14.582031 -15.476562 15.640625 -14.351562 16.296875 -12.96875 C 16.960938 -11.582031 17.296875 -10.097656 17.296875 -8.515625 C 17.296875 -6.816406 16.894531 -5.320312 16.09375 -4.03125 C 15.300781 -2.738281 14.226562 -1.742188 12.875 -1.046875 C 11.519531 -0.347656 10.035156 0 8.421875 0 L 2.28125 0 Z M 7.828125 -3.359375 C 9.628906 -3.359375 11.054688 -3.820312 12.109375 -4.75 C 13.171875 -5.675781 13.703125 -7.015625 13.703125 -8.765625 C 13.703125 -10.171875 13.410156 -11.289062 12.828125 -12.125 C 12.242188 -12.957031 11.5625 -13.53125 10.78125 -13.84375 C 10.007812 -14.164062 9.28125 -14.328125 8.59375 -14.328125 L 5.765625 -14.328125 L 5.765625 -3.359375 Z M 7.828125 -3.359375 "/></g></g></g><g fill="#62bfa7" fill-opacity="1"><g transform="translate(209.668257, 207.599986)"><g><path d="M 5.8125 -6.953125 L 5.8125 -4.03125 L 1.296875 -4.03125 L 1.296875 -6.953125 Z M 5.8125 -6.953125 "/></g></g></g><g fill="#62bfa7" fill-opacity="1"><g transform="translate(236.212277, 207.599986)"><g><path d="M 11.015625 -3.453125 L 5.15625 -3.453125 L 3.71875 0 L 0.28125 0 L 8.25 -18.359375 L 8.453125 -18.359375 L 16.421875 0 L 12.390625 0 Z M 9.859375 -6.390625 L 8.15625 -10.6875 L 6.390625 -6.390625 Z M 9.859375 -6.390625 "/></g></g></g><g fill="#62bfa7" fill-opacity="1"><g transform="translate(272.116304, 207.599986)"><g><path d="M 5.765625 -17.65625 L 5.765625 0 L 2.28125 0 L 2.28125 -17.65625 Z M 5.765625 -17.65625 "/></g></g></g><g fill="#000000" fill-opacity="1"><g transform="translate(151.770698, 258.233919)"><g><path d="M 4.4375 -5.890625 L 4.4375 -4.765625 L 1.921875 -4.765625 L 1.921875 -3.4375 L 4.109375 -3.4375 L 4.109375 -2.3125 L 1.921875 -2.3125 L 1.921875 0 L 0.765625 0 L 0.765625 -5.890625 Z M 4.4375 -5.890625 "/></g></g></g><g fill="#000000" fill-opacity="1"><g transform="translate(159.770765, 258.233919)"><g><path d="M 3.9375 0 L 2.703125 -1.875 L 1.921875 -1.875 L 1.921875 0 L 0.765625 0 L 0.765625 -5.890625 L 2.546875 -5.890625 C 3.273438 -5.890625 3.835938 -5.710938 4.234375 -5.359375 C 4.640625 -5.003906 4.84375 -4.519531 4.84375 -3.90625 C 4.84375 -3.539062 4.765625 -3.195312 4.609375 -2.875 C 4.460938 -2.5625 4.234375 -2.316406 3.921875 -2.140625 L 5.28125 0 Z M 1.921875 -2.984375 L 2.75 -2.984375 C 3.0625 -2.984375 3.285156 -3.078125 3.421875 -3.265625 C 3.566406 -3.453125 3.640625 -3.648438 3.640625 -3.859375 C 3.640625 -4.078125 3.578125 -4.28125 3.453125 -4.46875 C 3.335938 -4.664062 3.101562 -4.765625 2.75 -4.765625 L 1.921875 -4.765625 Z M 1.921875 -2.984375 "/></g></g></g><g fill="#000000" fill-opacity="1"><g transform="translate(168.458832, 258.233919)"><g><path d="M 0.40625 -2.9375 C 0.40625 -3.46875 0.535156 -3.960938 0.796875 -4.421875 C 1.066406 -4.890625 1.429688 -5.257812 1.890625 -5.53125 C 2.359375 -5.8125 2.863281 -5.953125 3.40625 -5.953125 C 3.9375 -5.953125 4.429688 -5.8125 4.890625 -5.53125 C 5.359375 -5.257812 5.726562 -4.890625 6 -4.421875 C 6.28125 -3.960938 6.421875 -3.46875 6.421875 -2.9375 C 6.421875 -2.394531 6.28125 -1.894531 6 -1.4375 C 5.726562 -0.976562 5.359375 -0.613281 4.890625 -0.34375 C 4.429688 -0.0703125 3.9375 0.0625 3.40625 0.0625 C 2.851562 0.0625 2.347656 -0.0703125 1.890625 -0.34375 C 1.429688 -0.613281 1.066406 -0.976562 0.796875 -1.4375 C 0.535156 -1.894531 0.40625 -2.394531 0.40625 -2.9375 Z M 1.59375 -2.9375 C 1.59375 -2.59375 1.675781 -2.273438 1.84375 -1.984375 C 2.007812 -1.703125 2.226562 -1.476562 2.5 -1.3125 C 2.78125 -1.144531 3.09375 -1.0625 3.4375 -1.0625 C 3.769531 -1.0625 4.070312 -1.144531 4.34375 -1.3125 C 4.613281 -1.476562 4.828125 -1.703125 4.984375 -1.984375 C 5.140625 -2.273438 5.21875 -2.59375 5.21875 -2.9375 C 5.21875 -3.289062 5.132812 -3.609375 4.96875 -3.890625 C 4.8125 -4.179688 4.59375 -4.410156 4.3125 -4.578125 C 4.039062 -4.742188 3.738281 -4.828125 3.40625 -4.828125 C 3.070312 -4.828125 2.765625 -4.742188 2.484375 -4.578125 C 2.210938 -4.410156 1.992188 -4.179688 1.828125 -3.890625 C 1.671875 -3.609375 1.59375 -3.289062 1.59375 -2.9375 Z M 1.59375 -2.9375 "/></g></g></g><g fill="#000000" fill-opacity="1"><g transform="translate(178.474918, 258.233919)"><g><path d="M 6.828125 -6.125 L 6.828125 0 L 5.65625 0 L 5.65625 -2.8125 L 3.75 -0.078125 L 3.734375 -0.078125 L 1.875 -2.625 L 1.875 0 L 0.765625 0 L 0.765625 -6.125 L 3.75 -1.890625 L 6.8125 -6.125 Z M 6.828125 -6.125 "/></g></g></g><g fill="#000000" fill-opacity="1"><g transform="translate(189.259011, 258.233919)"><g/></g></g><g fill="#000000" fill-opacity="1"><g transform="translate(195.059047, 258.233919)"><g><path d="M 4.265625 -1.125 L 4.265625 0 L 0.4375 0 C 0.71875 -0.289062 0.859375 -0.4375 0.859375 -0.4375 C 1.359375 -0.945312 1.742188 -1.351562 2.015625 -1.65625 C 2.296875 -1.96875 2.523438 -2.28125 2.703125 -2.59375 C 2.890625 -2.914062 2.984375 -3.222656 2.984375 -3.515625 C 2.984375 -3.734375 2.910156 -3.910156 2.765625 -4.046875 C 2.617188 -4.179688 2.421875 -4.25 2.171875 -4.25 C 1.941406 -4.25 1.753906 -4.1875 1.609375 -4.0625 C 1.472656 -3.9375 1.40625 -3.796875 1.40625 -3.640625 C 1.40625 -3.328125 1.507812 -3.0625 1.71875 -2.84375 L 1.015625 -2.203125 C 0.867188 -2.265625 0.738281 -2.378906 0.625 -2.546875 C 0.507812 -2.722656 0.421875 -2.910156 0.359375 -3.109375 C 0.304688 -3.304688 0.28125 -3.472656 0.28125 -3.609375 C 0.28125 -3.910156 0.363281 -4.195312 0.53125 -4.46875 C 0.695312 -4.738281 0.9375 -4.957031 1.25 -5.125 C 1.570312 -5.289062 1.945312 -5.375 2.375 -5.375 C 2.726562 -5.375 3.039062 -5.289062 3.3125 -5.125 C 3.59375 -4.957031 3.8125 -4.738281 3.96875 -4.46875 C 4.125 -4.195312 4.203125 -3.910156 4.203125 -3.609375 C 4.203125 -3.328125 4.144531 -3.050781 4.03125 -2.78125 C 3.925781 -2.507812 3.789062 -2.25 3.625 -2 C 3.457031 -1.757812 3.234375 -1.46875 2.953125 -1.125 Z M 4.265625 -1.125 "/></g></g></g><g fill="#000000" fill-opacity="1"><g transform="translate(202.923109, 258.233919)"><g><path d="M 2.515625 0.015625 C 2.085938 0.015625 1.707031 -0.0820312 1.375 -0.28125 C 1.039062 -0.476562 0.773438 -0.78125 0.578125 -1.1875 C 0.378906 -1.59375 0.28125 -2.09375 0.28125 -2.6875 C 0.28125 -4.488281 1.023438 -5.382812 2.515625 -5.375 C 2.929688 -5.375 3.304688 -5.273438 3.640625 -5.078125 C 3.984375 -4.878906 4.253906 -4.578125 4.453125 -4.171875 C 4.648438 -3.765625 4.75 -3.269531 4.75 -2.6875 C 4.75 -2.070312 4.648438 -1.5625 4.453125 -1.15625 C 4.253906 -0.757812 3.984375 -0.460938 3.640625 -0.265625 C 3.304688 -0.078125 2.929688 0.015625 2.515625 0.015625 Z M 2.5 -1.109375 C 2.875 -1.109375 3.140625 -1.25 3.296875 -1.53125 C 3.453125 -1.820312 3.53125 -2.21875 3.53125 -2.71875 C 3.53125 -3.738281 3.1875 -4.25 2.5 -4.25 C 2.132812 -4.25 1.875 -4.109375 1.71875 -3.828125 C 1.5625 -3.554688 1.484375 -3.175781 1.484375 -2.6875 C 1.484375 -2.195312 1.5625 -1.8125 1.71875 -1.53125 C 1.875 -1.25 2.132812 -1.109375 2.5 -1.109375 Z M 2.5 -1.109375 "/></g></g></g><g fill="#000000" fill-opacity="1"><g transform="translate(211.147178, 258.233919)"><g><path d="M 4.265625 -1.125 L 4.265625 0 L 0.4375 0 C 0.71875 -0.289062 0.859375 -0.4375 0.859375 -0.4375 C 1.359375 -0.945312 1.742188 -1.351562 2.015625 -1.65625 C 2.296875 -1.96875 2.523438 -2.28125 2.703125 -2.59375 C 2.890625 -2.914062 2.984375 -3.222656 2.984375 -3.515625 C 2.984375 -3.734375 2.910156 -3.910156 2.765625 -4.046875 C 2.617188 -4.179688 2.421875 -4.25 2.171875 -4.25 C 1.941406 -4.25 1.753906 -4.1875 1.609375 -4.0625 C 1.472656 -3.9375 1.40625 -3.796875 1.40625 -3.640625 C 1.40625 -3.328125 1.507812 -3.0625 1.71875 -2.84375 L 1.015625 -2.203125 C 0.867188 -2.265625 0.738281 -2.378906 0.625 -2.546875 C 0.507812 -2.722656 0.421875 -2.910156 0.359375 -3.109375 C 0.304688 -3.304688 0.28125 -3.472656 0.28125 -3.609375 C 0.28125 -3.910156 0.363281 -4.195312 0.53125 -4.46875 C 0.695312 -4.738281 0.9375 -4.957031 1.25 -5.125 C 1.570312 -5.289062 1.945312 -5.375 2.375 -5.375 C 2.726562 -5.375 3.039062 -5.289062 3.3125 -5.125 C 3.59375 -4.957031 3.8125 -4.738281 3.96875 -4.46875 C 4.125 -4.195312 4.203125 -3.910156 4.203125 -3.609375 C 4.203125 -3.328125 4.144531 -3.050781 4.03125 -2.78125 C 3.925781 -2.507812 3.789062 -2.25 3.625 -2 C 3.457031 -1.757812 3.234375 -1.46875 2.953125 -1.125 Z M 4.265625 -1.125 "/></g></g></g><g fill="#000000" fill-opacity="1"><g transform="translate(219.011239, 258.233919)"><g><path d="M 2.640625 -3.375 C 2.960938 -3.300781 3.222656 -3.132812 3.421875 -2.875 C 3.628906 -2.625 3.734375 -2.253906 3.734375 -1.765625 C 3.734375 -1.390625 3.644531 -1.0625 3.46875 -0.78125 C 3.289062 -0.507812 3.054688 -0.300781 2.765625 -0.15625 C 2.484375 -0.0078125 2.171875 0.0625 1.828125 0.0625 C 1.566406 0.0625 1.289062 0.0078125 1 -0.09375 C 0.71875 -0.207031 0.488281 -0.351562 0.3125 -0.53125 L 0.90625 -1.5 C 1 -1.382812 1.128906 -1.28125 1.296875 -1.1875 C 1.460938 -1.101562 1.628906 -1.0625 1.796875 -1.0625 C 1.992188 -1.0625 2.164062 -1.128906 2.3125 -1.265625 C 2.457031 -1.410156 2.53125 -1.601562 2.53125 -1.84375 C 2.53125 -2.070312 2.460938 -2.253906 2.328125 -2.390625 C 2.203125 -2.535156 2.023438 -2.609375 1.796875 -2.609375 C 1.648438 -2.609375 1.535156 -2.601562 1.453125 -2.59375 C 1.378906 -2.582031 1.289062 -2.5625 1.1875 -2.53125 L 1.15625 -2.5625 L 2.03125 -4.1875 L 0.765625 -4.1875 L 0.765625 -5.296875 L 3.640625 -5.296875 Z M 2.640625 -3.375 "/></g></g></g></svg>