<?xml version="1.0" standalone="no"?><!DOCTYPE svg PUBLIC "-//W3C//DTD SVG 1.1//EN" "http://www.w3.org/Graphics/SVG/1.1/DTD/svg11.dtd"><svg t="1685607866121" class="icon" viewBox="0 0 1024 1024" version="1.1" xmlns="http://www.w3.org/2000/svg" p-id="1185" xmlns:xlink="http://www.w3.org/1999/xlink" width="200" height="200"><path d="M512 0c141.141333 0 256 114.816 256 256s-114.858667 256-256 256-256-114.858667-256-256 114.858667-256 256-256z m0 85.333333C417.962667 85.333333 341.333333 161.962667 341.333333 256c0 93.994667 76.629333 170.666667 170.666667 170.666667 94.037333 0 170.666667-76.629333 170.666667-170.666667 0-94.037333-76.672-170.666667-170.666667-170.666667zM632.704 554.666667c195.84 0 342.997333 129.621333 348.458667 319.146666l0.170666 10.965334v21.034666c0 95.786667-150.144 115.84-328.96 117.973334l-36.096 0.213333H407.722667c-197.973333 0-358.272-15.36-364.842667-111.914667L42.666667 905.813333v-21.034666c0-191.786667 143.445333-324.992 337.408-329.984L391.253333 554.666667h241.408z m0 85.333333H391.253333c-152.618667 0-258.389333 95.573333-263.125333 234.965333l-0.170667 9.813334v21.034666c0 11.008 75.178667 30.72 250.410667 32.682667l29.312 0.170667h208.554667l30.122666-0.170667c165.418667-2.133333 244.992-21.461333 249.386667-31.786667L896 905.813333v-21.034666c0-141.44-102.357333-240.213333-252.757333-244.608L632.746667 640z" fill="#008DF0" p-id="1186"></path></svg>