<?xml version="1.0" standalone="no"?><!DOCTYPE svg PUBLIC "-//W3C//DTD SVG 1.1//EN" "http://www.w3.org/Graphics/SVG/1.1/DTD/svg11.dtd"><svg t="1685609513872" class="icon" viewBox="0 0 1024 1024" version="1.1" xmlns="http://www.w3.org/2000/svg" p-id="1512" xmlns:xlink="http://www.w3.org/1999/xlink" width="200" height="200"><path d="M880 231.33a128 128 0 0 0-102.38-125.41C695.65 89.21 606 80 512 80s-183.65 9.21-265.62 25.92A128 128 0 0 0 144 231.33v384.74a255.9 255.9 0 0 0 69.12 175A494.79 494.79 0 0 0 511.58 944 494.92 494.92 0 0 0 813.3 787.52 254.6 254.6 0 0 0 880 615.17z" fill="#FFFFFF" p-id="1513"></path><path d="M880 266.35a112 112 0 0 0-88.18-109.45C706.05 138.31 611.43 128 512 128c-97.24 0-164.94 9.86-235.27 27.68A112.14 112.14 0 0 0 192 264.32v363.23a239.89 239.89 0 0 0 47.46 143.28C305.19 859.14 416 912 511.58 929c118.86-15.21 224.57-57.49 301.72-141.44A254.62 254.62 0 0 0 880 615.17z" fill="#82AAFA" p-id="1514"></path><path d="M511.58 960a15.52 15.52 0 0 1-2-0.13A510.86 510.86 0 0 1 201.45 802 270.92 270.92 0 0 1 128 616.07V231.33A144 144 0 0 1 243.19 90.24C328.59 72.83 419 64 512 64s183.41 8.83 268.82 26.24A144 144 0 0 1 896 231.33v383.84c0 68.36-25.19 133.41-70.92 183.18a512.11 512.11 0 0 1-311.47 161.48 15.48 15.48 0 0 1-2.03 0.17zM512 96c-90.82 0-179.12 8.61-262.42 25.59A112.35 112.35 0 0 0 160 231.33v384.74a239.07 239.07 0 0 0 64.8 164 480.45 480.45 0 0 0 286.78 147.76A480.08 480.08 0 0 0 801.52 776.7C841.81 732.85 864 675.49 864 615.17V231.33a112.35 112.35 0 0 0-89.58-109.74C691.12 104.61 602.82 96 512 96z" fill="#333333" p-id="1515"></path><path d="M689.18 376.86a61.61 61.61 0 0 0-49.3-60.38 661.42 661.42 0 0 0-255.76 0 61.61 61.61 0 0 0-49.3 60.38v185.23a123.22 123.22 0 0 0 33.28 84.25A238.25 238.25 0 0 0 511.8 720a238.25 238.25 0 0 0 145.26-75.32 122.56 122.56 0 0 0 32.12-83z" fill="#FFFFFF" p-id="1516"></path><path d="M689.18 416.45c0-25.9-17.74-48.24-42.45-53.41a554.92 554.92 0 0 0-220.28 0c-24.71 5.17-42.45 27.51-42.45 53.41v163.86a110.61 110.61 0 0 0 28.66 74.52C444.53 689.77 480 704 512 704c49.29-6.48 117.53-14.91 149.52-50.67a110.06 110.06 0 0 0 27.66-73.4z" fill="#8BF0AD" p-id="1517"></path><path d="M511.8 736a15.27 15.27 0 0 1-2-0.13 255 255 0 0 1-153.34-78.55 138.74 138.74 0 0 1-37.61-95.19V376.86a77.87 77.87 0 0 1 62.1-76.06 677.57 677.57 0 0 1 262.16 0 77.87 77.87 0 0 1 62.1 76.06v184.8a138.19 138.19 0 0 1-36.34 93.81 254.86 254.86 0 0 1-155 80.36 15.48 15.48 0 0 1-2.07 0.17z m0.2-416a626.37 626.37 0 0 0-124.69 12.15 45.78 45.78 0 0 0-36.49 44.71v185.23a106.85 106.85 0 0 0 29 73.31 223 223 0 0 0 132 68.42 222.84 222.84 0 0 0 133.48-70 106.27 106.27 0 0 0 27.9-72.16v-184.8a45.78 45.78 0 0 0-36.49-44.71A626.37 626.37 0 0 0 512 320z" fill="#333333" p-id="1518"></path></svg>