<?xml version="1.0" standalone="no"?><!DOCTYPE svg PUBLIC "-//W3C//DTD SVG 1.1//EN" "http://www.w3.org/Graphics/SVG/1.1/DTD/svg11.dtd"><svg t="1685608335940" class="icon" viewBox="0 0 1024 1024" version="1.1" xmlns="http://www.w3.org/2000/svg" p-id="1662" xmlns:xlink="http://www.w3.org/1999/xlink" width="200" height="200"><path d="M144 416m112 0l512 0q112 0 112 112l0 304q0 112-112 112l-512 0q-112 0-112-112l0-304q0-112 112-112Z" fill="#FFFFFF" p-id="1663"></path><path d="M192 464m112 0l448 0q112 0 112 112l0 240q0 112-112 112l-448 0q-112 0-112-112l0-240q0-112 112-112Z" fill="#A89BFA" p-id="1664"></path><path d="M512 768a32 32 0 0 1-32-32V608a32 32 0 0 1 64 0v128a32 32 0 0 1-32 32z" fill="#333333" p-id="1665"></path><path d="M256 336c0-141.38 114.62-256 256-256s256 114.62 256 256v80H256z" fill="#FFFFFF" p-id="1666"></path><path d="M304.76 343.62C304.76 215.7 408.46 112 536.38 112S768 215.7 768 343.62V416H304.76z" fill="#82DAFA" p-id="1667"></path><path d="M784 403.59V336a272 272 0 0 0-544 0v67.59c-64 14.59-112 72-112 140.41v272c0 79.4 64.6 144 144 144h480c79.4 0 144-64.6 144-144V544c0-68.41-47.95-125.82-112-140.41zM272 336c0-132.34 107.66-240 240-240s240 107.66 240 240v64H272z m592 480a112.12 112.12 0 0 1-112 112H272a112.12 112.12 0 0 1-112-112V544a112.12 112.12 0 0 1 112-112h480a112.12 112.12 0 0 1 112 112z" fill="#333333" p-id="1668"></path></svg>