<?xml version="1.0" standalone="no"?><!DOCTYPE svg PUBLIC "-//W3C//DTD SVG 1.1//EN" "http://www.w3.org/Graphics/SVG/1.1/DTD/svg11.dtd"><svg t="1685609112118" class="icon" viewBox="0 0 1024 1024" version="1.1" xmlns="http://www.w3.org/2000/svg" p-id="1967" xmlns:xlink="http://www.w3.org/1999/xlink" width="200" height="200"><path d="M144 80m129.78 0l476.44 0q129.78 0 129.78 129.78l0 588.44q0 129.78-129.78 129.78l-476.44 0q-129.78 0-129.78-129.78l0-588.44q0-129.78 129.78-129.78Z" fill="#FF9580" p-id="1968"></path><path d="M752 96H272a112 112 0 0 0-112 112v608a112 112 0 0 0 112 112h16a96 96 0 0 1-96-96V224a96 96 0 0 1 96-96h480a96 96 0 0 1 96 96v-16A112 112 0 0 0 752 96z" fill="#FFFFFF" p-id="1969"></path><path d="M272 208m96 0l288 0q96 0 96 96l0 288q0 96-96 96l-288 0q-96 0-96-96l0-288q0-96 96-96Z" fill="#FFE07A" p-id="1970"></path><path d="M656 224H368a80 80 0 0 0-80 80v288a80 80 0 0 0 80 80h32a80 80 0 0 1-80-80V336a80 80 0 0 1 80-80h256a80 80 0 0 1 80 80v-32a80 80 0 0 0-80-80z" fill="#FFFFFF" p-id="1971"></path><path d="M752 960H272c-79.4 0-144-64.6-144-144V208c0-79.4 64.6-144 144-144h480c79.4 0 144 64.6 144 144v608c0 79.4-64.6 144-144 144zM272 96a112.12 112.12 0 0 0-112 112v608a112.12 112.12 0 0 0 112 112h480a112.12 112.12 0 0 0 112-112V208A112.12 112.12 0 0 0 752 96z" fill="#333333" p-id="1972"></path><path d="M608 832H416a32 32 0 0 1 0-64h192a32 32 0 0 1 0 64zM656 704H368a112.12 112.12 0 0 1-112-112V304a112.12 112.12 0 0 1 112-112h288a112.12 112.12 0 0 1 112 112v288a112.12 112.12 0 0 1-112 112zM368 224a80.09 80.09 0 0 0-80 80v288a80.09 80.09 0 0 0 80 80h288a80.09 80.09 0 0 0 80-80V304a80.09 80.09 0 0 0-80-80z" fill="#333333" p-id="1973"></path></svg>