<?xml version="1.0" standalone="no"?><!DOCTYPE svg PUBLIC "-//W3C//DTD SVG 1.1//EN" "http://www.w3.org/Graphics/SVG/1.1/DTD/svg11.dtd"><svg t="1699276286612" class="icon" viewBox="0 0 1024 1024" version="1.1" xmlns="http://www.w3.org/2000/svg" p-id="4293" xmlns:xlink="http://www.w3.org/1999/xlink" width="200" height="200"><path d="M977.728 292.736a30.272 30.272 0 0 0-3.264-10.432L864.128 39.36a31.36 31.36 0 0 0-1.152-2.752L862.72 36.096 862.08 35.2a30.272 30.272 0 0 0-26.496-16H190.272a29.952 29.952 0 0 0-18.112 6.528c-0.896 0.576-1.792 1.024-2.56 1.728-1.024 0.96-1.792 2.112-2.688 3.2-1.6 1.728-3.392 3.2-4.608 5.376L50.624 282.24c-1.344 2.432-1.728 4.992-2.368 7.552a29.824 29.824 0 0 0-4.672 15.232V974.08c0 16.896 13.76 30.656 30.72 30.656H949.76a30.72 30.72 0 0 0 30.656-30.72V305.152a30.336 30.336 0 0 0-2.688-12.352zM209.6 80.64h605.824l89.152 193.856H120.512l89.152-193.92zM104.96 335.744H919.04v607.68H104.96V335.808z" fill="#2c2c2c" p-id="4294"></path><path d="M843.776 452.416a32 32 0 0 0-45.056-4.48L576.576 630.144l-105.088-97.92c-1.92-1.728-4.096-2.56-6.208-3.776-0.768-0.448-1.472-1.024-2.24-1.408a31.104 31.104 0 0 0-7.744-2.304c-1.664-0.32-3.2-0.64-4.864-0.768-1.856 0-3.584 0.256-5.44 0.512a30.72 30.72 0 0 0-7.36 1.728c-0.96 0.384-1.856 0.96-2.752 1.408-2.112 1.088-4.288 1.728-6.144 3.264l-243.456 199.68a32 32 0 1 0 40.576 49.536L448 597.888l105.088 97.92c1.92 1.728 4.16 2.56 6.272 3.84 0.704 0.384 1.344 0.896 2.112 1.28 2.56 1.216 5.12 1.856 7.808 2.368 1.664 0.32 3.2 0.64 4.864 0.768 1.792 0 3.52-0.256 5.312-0.512a30.72 30.72 0 0 0 7.552-1.728c0.896-0.384 1.664-0.96 2.56-1.408 2.112-1.024 4.352-1.728 6.272-3.328l243.456-199.68a32 32 0 0 0 4.48-45.056z" fill="#2c2c2c" p-id="4295"></path></svg>