<?xml version="1.0" standalone="no"?><!DOCTYPE svg PUBLIC "-//W3C//DTD SVG 1.1//EN" "http://www.w3.org/Graphics/SVG/1.1/DTD/svg11.dtd"><svg t="1699276322599" class="icon" viewBox="0 0 1024 1024" version="1.1" xmlns="http://www.w3.org/2000/svg" p-id="4698" xmlns:xlink="http://www.w3.org/1999/xlink" width="200" height="200"><path d="M174 743.33A31.84 31.84 0 0 1 151.48 689L398 442.45a31.83 31.83 0 0 1 45 45L196.5 734a31.74 31.74 0 0 1-22.5 9.33zM278.26 808.85a31.83 31.83 0 0 1-22.51-54.34l227.16-227.16a31.83 31.83 0 0 1 45 45L300.77 799.53a31.77 31.77 0 0 1-22.51 9.32zM165.58 588.86a31.84 31.84 0 0 1-22.5-54.35l148-148a31.83 31.83 0 0 1 45 45l-148 148a31.71 31.71 0 0 1-22.5 9.35zM381.2 871a31.83 31.83 0 0 1-22.51-54.34l127.9-127.9a31.83 31.83 0 1 1 45 45l-127.9 127.9A31.7 31.7 0 0 1 381.2 871z" fill="#2c2c2c" p-id="4699"></path><path d="M512.13 96.32v415.39L695.28 617l165.68 89.47V546.41l-5.07-251.62L512.13 96.32z" fill="#2c2c2c" p-id="4700"></path><path d="M512.13 940.43a31.83 31.83 0 0 1-31.83-31.84V530.1L152.46 340.77a31.84 31.84 0 0 1 31.84-55.15L512.13 475 840 285.62l31.84 55.15L544 530.1v378.49a31.83 31.83 0 0 1-31.87 31.84z" fill="#2c2c2c" p-id="4701"></path><path d="M513.86 952.57L131.86 732V291.3L513.53 70.94l381.78 220.42-2.62 433.16zM195.53 695.25l317.66 183.4 316-190.24L831.41 328 513.53 144.46l-318 183.6z" fill="#2c2c2c" p-id="4702"></path></svg>