<?xml version="1.0" standalone="no"?><!DOCTYPE svg PUBLIC "-//W3C//DTD SVG 1.1//EN" "http://www.w3.org/Graphics/SVG/1.1/DTD/svg11.dtd"><svg t="1699276370818" class="icon" viewBox="0 0 1024 1024" version="1.1" xmlns="http://www.w3.org/2000/svg" p-id="5632" xmlns:xlink="http://www.w3.org/1999/xlink" width="200" height="200"><path d="M 930.326 202.747 V 32.0802 a 32.0802 32.0802 0 0 0 -64.1604 0 v 170.667 a 107.789 107.789 0 0 0 0 206.596 v 581.935 a 32.0802 32.0802 0 0 0 64.1604 0 V 409.985 a 107.789 107.789 0 0 0 0 -206.596 Z m -32.0802 148.211 a 44.9123 44.9123 0 1 1 44.9123 -44.9123 a 44.9123 44.9123 0 0 1 -44.9123 44.9123 Z M 544.08 407.419 V 32.0802 a 32.0802 32.0802 0 0 0 -64.1604 0 v 375.338 a 107.789 107.789 0 0 0 0 206.596 v 377.905 a 32.0802 32.0802 0 0 0 64.1604 0 V 614.015 a 107.789 107.789 0 0 0 0 -206.596 Z m -32.0802 148.211 a 44.9123 44.9123 0 1 1 44.9123 -44.9123 a 44.9123 44.9123 0 0 1 -44.9123 44.2707 Z M 157.834 611.449 V 32.0802 a 32.0802 32.0802 0 0 0 -64.1604 0 v 577.444 a 107.789 107.789 0 0 0 0 206.596 v 173.875 a 32.0802 32.0802 0 0 0 64.1604 0 v -171.95 a 107.789 107.789 0 0 0 0 -206.596 Z m -32.0802 148.211 a 44.9123 44.9123 0 1 1 44.9123 -44.9123 a 44.9123 44.9123 0 0 1 -44.9123 44.2707 Z" fill="#2c2c2c" p-id="5633"></path></svg>