<?xml version="1.0" standalone="no"?><!DOCTYPE svg PUBLIC "-//W3C//DTD SVG 1.1//EN" "http://www.w3.org/Graphics/SVG/1.1/DTD/svg11.dtd"><svg t="1685607128434" class="icon" viewBox="0 0 1024 1024" version="1.1" xmlns="http://www.w3.org/2000/svg" p-id="1045" xmlns:xlink="http://www.w3.org/1999/xlink" width="200" height="200"><path d="M837.818182 325.818182H186.181818a139.636364 139.636364 0 0 0-139.636363 139.636363v418.909091a139.636364 139.636364 0 0 0 139.636363 139.636364h651.636364a139.636364 139.636364 0 0 0 139.636363-139.636364v-418.909091a139.636364 139.636364 0 0 0-139.636363-139.636363zM186.181818 418.909091h651.636364a46.545455 46.545455 0 0 1 46.545454 46.545454v418.909091a46.545455 46.545455 0 0 1-46.545454 46.545455H186.181818a46.545455 46.545455 0 0 1-46.545454-46.545455v-418.909091a46.545455 46.545455 0 0 1 46.545454-46.545454z" fill="#008DF0" p-id="1046"></path><path d="M512 0c175.197091 0 319.534545 127.627636 325.632 289.373091l0.186182 10.565818V372.363636h-93.090909V299.938909C744.727273 186.786909 641.489455 93.090909 512 93.090909 386.094545 93.090909 285.044364 181.620364 279.505455 290.583273L279.272727 299.938909V372.363636H186.181818V299.938909C186.181818 133.213091 333.032727 0 512 0z" fill="#008DF0" p-id="1047"></path><path d="M512 512a93.090909 93.090909 0 0 1 46.592 173.707636L558.545455 791.272727a46.545455 46.545455 0 0 1-93.09091 0v-105.565091A93.090909 93.090909 0 0 1 512 512z" fill="#008DF0" p-id="1048"></path></svg>