<?xml version="1.0" standalone="no"?><!DOCTYPE svg PUBLIC "-//W3C//DTD SVG 1.1//EN" "http://www.w3.org/Graphics/SVG/1.1/DTD/svg11.dtd"><svg t="1685609081990" class="icon" viewBox="0 0 1024 1024" version="1.1" xmlns="http://www.w3.org/2000/svg" p-id="1812" xmlns:xlink="http://www.w3.org/1999/xlink" width="200" height="200"><path d="M288 272v80c0 123.71 100.29 224 224 224s224-100.29 224-224V208H288z" fill="#FFFFFF" p-id="1813"></path><path d="M336 368c0 106 86 192 192 192s192-86 192-192V208H336z" fill="#FFBF80" p-id="1814"></path><path d="M512 592a240 240 0 0 1-240-240V208a16 16 0 0 1 16-16h448a16 16 0 0 1 16 16v144a240 240 0 0 1-240 240zM304 224v128c0 114.69 93.31 208 208 208s208-93.31 208-208V224z" fill="#333333" p-id="1815"></path><path d="M436.73 87.15l-291 89.51c-15.06 4.63-15.06 26 0 30.58l291 89.58a256 256 0 0 0 150.6 0l291-89.54c15.06-4.63 15.06-25.95 0-30.58l-291-89.55a256 256 0 0 0-150.6 0z" fill="#FFFFFF" p-id="1816"></path><path d="M192 208l268 79.57a177.3 177.3 0 0 0 104.31 0.75L880 192l-319.5-69.52a192 192 0 0 0-96 3.72z" fill="#FF8591" p-id="1817"></path><path d="M512 324.2a271.71 271.71 0 0 1-80-12.09l-291-89.58a32 32 0 0 1 0-61.17l291-89.5 4.71 15.29L432 71.86a271 271 0 0 1 160 0l291 89.55a32 32 0 0 1 0 61.16l-291 89.55a271.81 271.81 0 0 1-80 12.08zM150.41 192l291 89.58a239.06 239.06 0 0 0 141.19 0l291-89.54-291-89.55a239.18 239.18 0 0 0-141.13 0L150.41 192z" fill="#333333" p-id="1818"></path><path d="M192 385a32 32 0 0 1-32-32V241a32 32 0 0 1 64 0v112a32 32 0 0 1-32 32z" fill="#333333" p-id="1819"></path><path d="M192 448m-32 0a32 32 0 1 0 64 0 32 32 0 1 0-64 0Z" fill="#333333" p-id="1820"></path><path d="M774.29 573.89a32.06 32.06 0 0 0-46.86 1.23 288 288 0 0 1-430.86 0 32.06 32.06 0 0 0-46.86-1.23A366.8 366.8 0 0 0 144 832a112 112 0 0 0 112 112h512a112 112 0 0 0 112-112 366.8 366.8 0 0 0-105.71-258.11z" fill="#FFFFFF" p-id="1821"></path><path d="M781.19 629.88a30.14 30.14 0 0 0-43.81 1.12 270.66 270.66 0 0 1-402.76 0 30.14 30.14 0 0 0-43.81-1.14C229.71 691.46 192 746.94 192 840.17v23.5c0 32.77 47.79 80.33 80.83 80.33h526.34c33 0 80.83-46.56 80.83-79.33v-24.5c0-93.23-37.71-148.71-98.81-210.29z" fill="#82DAFA" p-id="1822"></path><path d="M768 960H256a128.14 128.14 0 0 1-128-128 381.77 381.77 0 0 1 110.3-269.34 48.08 48.08 0 0 1 70.24 1.84 272 272 0 0 0 406.92 0 48.08 48.08 0 0 1 70.24-1.84A381.77 381.77 0 0 1 896 832a128.14 128.14 0 0 1-128 128zM272.53 580.31a15.87 15.87 0 0 0-11.42 4.8A350 350 0 0 0 160 832a96.11 96.11 0 0 0 96 96h512a96.11 96.11 0 0 0 96-96 350 350 0 0 0-101.11-246.89 15.78 15.78 0 0 0-11.89-4.79 16 16 0 0 0-11.65 5.43 303.78 303.78 0 0 1-454.78 0 16 16 0 0 0-11.57-5.43z" fill="#333333" p-id="1823"></path></svg>